# xmcd
#
# Track frame offsets: 
#        150
#        19797
#        34283
#        51982
#        69947
#        90169
#        105204
#        119341
#        136397
#        155387
#
# Disc length: 2420 seconds
#
# Revision: 0
# Processed by: cddbd v1.5.2PL0 Copyright (c) Steve Scherf et al.
# Submitted via: ExactAudioCopy v1.1
#
DISCID=7509720a
DTITLE=Jeff Finlin - The Guru In The Girl
DYEAR=2017
DGENRE=
TTITLE0=Her Love Will Light The Way
TTITLE1=Someday
TTITLE2=Babylon
TTITLE3=Driving Wheel #72
TTITLE4=Love Among The Wires
TTITLE5=Lost In Your Blue Eyes
TTITLE6=Angelou
TTITLE7=God Only Knows
TTITLE8=I Gave You Back Last Night
TTITLE9=The Guru In The Girl
EXTD=
EXTT0=
EXTT1=
EXTT2=
EXTT3=
EXTT4=
EXTT5=
EXTT6=
EXTT7=
EXTT8=
EXTT9=
PLAYORDER=
